<svg width="13" height="19" viewBox="0 0 13 19" fill="none" xmlns="http://www.w3.org/2000/svg">
<path d="M6.51776 9.76221C5.98286 9.76221 5.53711 10.2171 5.53711 10.7629V13.6284C5.53711 14.1743 5.98286 14.6291 6.51776 14.6291C7.05265 14.6291 7.4984 14.1743 7.4984 13.6284V10.7856C7.4984 10.2169 7.05265 9.76221 6.51776 9.76221Z" fill="#FD6F6E"/>
<path d="M6.5009 6.60205C3.32827 6.60205 0.744141 9.18618 0.744141 12.3588C0.744141 15.5314 3.32827 18.1156 6.5009 18.1156C9.67353 18.1156 12.2577 15.5314 12.2577 12.3588C12.2577 9.18618 9.67353 6.60205 6.5009 6.60205ZM8.39418 13.8173C8.39418 14.8664 7.54978 15.7106 6.5009 15.7106C5.45186 15.7106 4.60763 14.8662 4.60763 13.8173V10.6192C4.60763 9.57011 5.45202 8.72588 6.5009 8.72588C7.54995 8.72588 8.39418 9.57028 8.39418 10.6192V13.8173Z" fill="#FD6F6E"/>
<path d="M8.91458 7.30602H8.23735V5.0379V2.76978C8.23735 2.3184 8.05681 1.86699 7.71814 1.55104C7.40227 1.21258 6.95079 1.03206 6.49928 1.03206C5.55124 1.03206 4.76122 1.79938 4.76122 2.76974V4.6472C4.76122 4.83421 4.60961 4.98581 4.4226 4.98581C4.23559 4.98581 4.08398 4.83421 4.08398 4.6472V2.76974C4.08398 1.43825 5.16749 0.35498 6.49928 0.35498C7.13131 0.35498 7.74081 0.603203 8.19229 1.05459C8.64377 1.50596 8.89205 2.11533 8.89205 2.74722V7.30595L8.91458 7.30602Z" fill="#FD6F6E"/>
</svg>
