<svg width="18" height="18" viewBox="0 0 18 18" fill="none" xmlns="http://www.w3.org/2000/svg">
<path d="M0.0328019 13.5062L0 17.2128C0 17.4096 0.0656039 17.6392 0.229613 17.7704C0.393622 17.9016 0.590433 18 0.787244 18L4.49385 17.9672C4.69066 17.9672 4.88747 17.8688 5.05148 17.7376L17.7786 5.01048C18.0738 4.71526 18.0738 4.19043 17.7786 3.89522L14.1048 0.221412C13.8096 -0.0738041 13.2847 -0.0738041 12.9895 0.221412L10.431 2.77995L0.262415 12.9485C0.0984059 13.1125 0.0328019 13.3093 0.0328019 13.5062ZM16.1057 4.45285L14.6624 5.89613L12.1039 3.33759L13.5472 1.8943L16.1057 4.45285ZM1.60729 13.8342L10.9886 4.45285L13.5472 7.01139L4.16583 16.3927H1.60729V13.8342Z" fill="white"/>
</svg>
