<svg width="17" height="26" viewBox="0 0 17 26" fill="none" xmlns="http://www.w3.org/2000/svg">
<path d="M8.78 25.6685C4.23488 25.6685 0.559998 21.9937 0.559998 17.4485C0.559998 12.9034 4.23478 9.22852 8.78 9.22852C13.3252 9.22852 17 12.9033 17 17.4485C17 21.9936 13.3252 25.6685 8.78 25.6685ZM8.78 10.1957C4.78288 10.1957 1.52721 13.4514 1.52721 17.4485C1.52721 21.4456 4.78288 24.7013 8.78 24.7013C12.7771 24.7013 16.0328 21.4456 16.0328 17.4485C16.0328 13.4514 12.7771 10.1957 8.78 10.1957Z" fill="#FD6F6E"/>
<path d="M12.2292 10.2921H11.2621V3.78066C11.2621 3.13594 11.0043 2.49116 10.5207 2.03989C10.0696 1.58881 9.42488 1.33077 8.78011 1.33077C7.42627 1.33077 6.2981 2.42677 6.2981 3.81278V10.2921H5.33099V3.78066C5.33099 1.87882 6.87827 0.331543 8.78011 0.331543C9.68267 0.331543 10.5531 0.68609 11.1978 1.33082C11.8425 1.97554 12.1971 2.84593 12.1971 3.74849V10.2921L12.2292 10.2921Z" fill="#FD6F6E"/>
<path d="M8.78 21.6386C7.45834 21.6386 6.39471 20.5748 6.39471 19.2533V15.224C6.39471 13.9024 7.45854 12.8387 8.78 12.8387C10.1017 12.8387 11.1653 13.9026 11.1653 15.224V19.2533C11.1653 20.575 10.1017 21.6386 8.78 21.6386ZM8.78 13.8056C8.00634 13.8056 7.36161 14.4503 7.36161 15.224V19.2533C7.36161 20.0269 8.00634 20.6717 8.78 20.6717C9.55367 20.6717 10.1984 20.0269 10.1984 19.2533V15.224C10.1984 14.4503 9.55367 13.8056 8.78 13.8056Z" fill="#FD6F6E"/>
</svg>
