<svg width="17" height="27" viewBox="0 0 17 27" fill="none" xmlns="http://www.w3.org/2000/svg">
<path d="M8.32763 14.4043C7.57471 14.4043 6.94727 15.0446 6.94727 15.8129V19.8464C6.94727 20.6147 7.57471 21.255 8.32763 21.255C9.08056 21.255 9.708 20.6147 9.708 19.8464V15.8449C9.708 15.0444 9.08056 14.4043 8.32763 14.4043Z" fill="#FD6F6E"/>
<path d="M8.30201 9.95654C3.83618 9.95654 0.19873 13.594 0.19873 18.0598C0.19873 22.5257 3.83618 26.1631 8.30201 26.1631C12.7678 26.1631 16.4053 22.5257 16.4053 18.0598C16.4053 13.594 12.7678 9.95654 8.30201 9.95654ZM10.967 20.1128C10.967 21.5895 9.77843 22.7778 8.30201 22.7778C6.82536 22.7778 5.63701 21.5893 5.63701 20.1128V15.6111C5.63701 14.1344 6.82559 12.9461 8.30201 12.9461C9.77866 12.9461 10.967 14.1347 10.967 15.6111V20.1128Z" fill="#FD6F6E"/>
<path d="M11.7019 10.9474H10.7487V7.75481V4.56218C10.7487 3.92682 10.4945 3.2914 10.0178 2.84668C9.5732 2.37025 8.9377 2.11615 8.30214 2.11615C6.96766 2.11615 5.85562 3.19624 5.85562 4.56213V7.20486C5.85562 7.4681 5.64222 7.6815 5.37898 7.6815C5.11574 7.6815 4.90234 7.4681 4.90234 7.20486V4.56213C4.90234 2.6879 6.4275 1.16309 8.30214 1.16309C9.1918 1.16309 10.0497 1.51249 10.6852 2.14786C11.3207 2.78322 11.6702 3.64097 11.6702 4.53042V10.9473L11.7019 10.9474Z" fill="#FD6F6E"/>
</svg>
