<svg width="108" height="108" viewBox="0 0 108 108" fill="none" xmlns="http://www.w3.org/2000/svg">
<path d="M90.1463 17.1279V90.8717C90.1463 91.7668 89.7907 92.6252 89.1578 93.2582C88.5249 93.8911 87.6664 94.2467 86.7713 94.2467H33.9863C33.0912 94.2467 32.2328 93.8911 31.5998 93.2582C30.9669 92.6252 30.6113 91.7668 30.6113 90.8717V38.9642L49.1738 13.7529H86.7713C87.6664 13.7529 88.5249 14.1085 89.1578 14.7414C89.7907 15.3744 90.1463 16.2328 90.1463 17.1279Z" fill="white"/>
<path d="M49.1734 13.7871V35.4377C49.1734 36.3328 48.8179 37.1913 48.1849 37.8242C47.552 38.4572 46.6935 38.8127 45.7984 38.8127H30.6953L49.1734 13.7871Z" fill="#DBDBDB"/>
<path d="M67.331 59.8555H21.2285C19.3646 59.8555 17.8535 61.3665 17.8535 63.2305V80.173C17.8535 82.0369 19.3646 83.548 21.2285 83.548H67.331C69.195 83.548 70.706 82.0369 70.706 80.173V63.2305C70.706 61.3665 69.195 59.8555 67.331 59.8555Z" fill="#FD6F6E"/>
<path d="M34.9987 73.0689V76.7139H32.0625V66.707H36.1125C36.9008 66.6645 37.689 66.7911 38.4244 67.0783C38.9477 67.3152 39.3884 67.703 39.69 68.192C39.9952 68.7015 40.153 69.2857 40.1456 69.8795C40.1654 70.3104 40.0911 70.7404 39.9279 71.1396C39.7648 71.5389 39.5166 71.8978 39.2006 72.1914C38.4972 72.8033 37.5835 73.1179 36.6525 73.0689H34.9987ZM34.9987 70.9258H35.9775C36.8381 70.9258 37.26 70.5883 37.26 69.9301C37.26 69.272 36.8719 68.9851 36.0787 68.9851H34.9987V70.9258ZM41.2425 76.7139V66.707H44.9381C45.6116 66.6563 46.2876 66.7643 46.9119 67.0222C47.5361 67.2801 48.0912 67.6807 48.5325 68.192C49.3276 69.1676 49.752 70.393 49.7306 71.6514C49.8019 72.9882 49.3407 74.2987 48.4481 75.2964C48.0244 75.7663 47.5022 76.1369 46.9189 76.3819C46.3355 76.6269 45.7053 76.7403 45.0731 76.7139H41.2425ZM44.1788 74.402H44.9381C45.1906 74.3977 45.4375 74.3267 45.6539 74.1963C45.8702 74.0659 46.0482 73.8808 46.17 73.6595C46.5235 73.0514 46.6934 72.354 46.6594 71.6514C46.6726 70.9947 46.5218 70.3451 46.2206 69.7614C46.1024 69.5238 45.919 69.3247 45.692 69.1872C45.4649 69.0498 45.2035 68.9797 44.9381 68.9851H44.1788V74.402ZM56.9363 72.9676H53.8312V76.7139H50.9794V66.707H57.8812V69.0864H53.8312V70.7739H56.9363V72.9676Z" fill="#EDEEEF"/>
</svg>
