<svg width="101" height="101" viewBox="0 0 101 101" fill="none" xmlns="http://www.w3.org/2000/svg">
<rect x="0.5" y="0.0815125" width="100" height="100" rx="10" fill="#FD6F6E" fill-opacity="0.46"/>
<path d="M37.2177 10.1815H37.1554L37.1551 10.1818H15.4338C14.351 10.1818 13.3119 10.6118 12.5462 11.3775C11.7805 12.1432 11.3505 13.1822 11.3505 14.2651V36.0487C11.3505 37.5075 12.1285 38.8556 13.3918 39.585C14.6552 40.3144 16.2124 40.3144 17.4758 39.585L17.4008 39.4551L17.4758 39.585C18.7391 38.8556 19.517 37.5075 19.517 36.0487V18.348H37.2177C38.6765 18.348 40.0246 17.5701 40.754 16.3067C41.4835 15.0434 41.4835 13.4862 40.754 12.2228L40.6241 12.2978L40.754 12.2228C40.0246 10.9594 38.6765 10.1815 37.2177 10.1815Z" fill="white" stroke="white" stroke-width="0.3"/>
<path d="M82.1528 63.2844V80.985H64.4522C62.9933 80.985 61.6452 81.7629 60.9158 83.0263L61.0457 83.1013L60.9158 83.0263C60.1864 84.2896 60.1864 85.8468 60.9158 87.1102L61.0452 87.0355L60.9158 87.1102C61.6452 88.3736 62.9933 89.1515 64.4522 89.1515H86.2357C87.3185 89.1515 88.3576 88.7215 89.1233 87.9558C89.889 87.1902 90.319 86.1511 90.319 85.0682V63.2847C90.319 62.2018 89.889 61.1635 89.1234 60.3971L89.1233 60.3971C88.4407 59.7145 87.5409 59.2987 86.5865 59.2165L86.6021 59.2011H86.2361C85.1532 59.2011 84.1141 59.6311 83.3485 60.3968L83.3484 60.3968C82.5828 61.1631 82.1528 62.2014 82.1528 63.2844Z" fill="white" stroke="white" stroke-width="0.3"/>
<path d="M36.8547 80.9843L36.855 80.9847H19.5165V63.284C19.5165 61.8252 18.7386 60.4771 17.4752 59.7477C16.2119 59.0182 14.6547 59.0182 13.3913 59.7477L13.3913 59.7477C12.1279 60.4771 11.35 61.8252 11.35 63.284V85.0676C11.35 86.1504 11.78 87.1895 12.5457 87.9552C13.3113 88.7209 14.3503 89.1508 15.4332 89.1508H37.2168C38.6756 89.1508 40.0237 88.3729 40.7532 87.1095C41.4826 85.8462 41.4826 84.289 40.7532 83.0256C40.0237 81.7623 38.6756 80.9843 37.2168 80.9843H36.8547Z" fill="white" stroke="white" stroke-width="0.3"/>
<path d="M52.4746 53.7434C60.081 53.7434 66.2312 47.6162 66.2312 40.0375C66.2312 32.459 60.0814 26.3315 52.4746 26.3315C44.8682 26.3315 38.718 32.4587 38.718 40.0375C38.718 47.6159 44.8683 53.7434 52.4746 53.7434Z" fill="white"/>
<path d="M62.2661 61.9194H42.6832C36.0474 61.9194 30.626 67.3215 30.626 73.9323V87.7189C30.626 88.6059 31.3543 89.3315 32.2446 89.3315H72.7051C73.5954 89.3315 74.3237 88.6059 74.3237 87.7189L74.3232 73.9323C74.3232 67.3214 68.9016 61.9194 62.2659 61.9194H62.2661Z" fill="white"/>
<path d="M76.3 10.3315C74.1828 10.3315 72.4667 12.0476 72.4667 14.1648V20.2982H66.3333C64.2161 20.2982 62.5 22.0143 62.5 24.1315C62.5 26.2487 64.2161 27.9648 66.3333 27.9648H72.4667V34.0982C72.4667 36.2154 74.1828 37.9315 76.3 37.9315C78.4172 37.9315 80.1333 36.2154 80.1333 34.0982V27.9648H86.2667C88.3839 27.9648 90.1 26.2487 90.1 24.1315C90.1 22.0143 88.3839 20.2982 86.2667 20.2982H80.1333V14.1648C80.1333 12.0476 78.4172 10.3315 76.3 10.3315Z" fill="white"/>
</svg>
