<svg width="14" height="14" viewBox="0 0 14 14" fill="none" xmlns="http://www.w3.org/2000/svg">
<path d="M12.6373 7.00162C12.6372 6.26288 13.0993 5.63235 13.75 5.38225C13.5806 4.6729 13.2998 3.99489 12.9181 3.37346C12.6958 3.47217 12.4553 3.52312 12.2121 3.52301C11.7683 3.52301 11.3248 3.35387 10.9861 3.01529C10.4636 2.49276 10.3446 1.71992 10.6282 1.08275C10.007 0.70077 9.32907 0.4197 8.61979 0.25C8.37007 0.90141 7.73923 1.3641 7 1.3641C6.26084 1.3641 5.63 0.90141 5.38025 0.25C4.67097 0.419697 3.99308 0.700781 3.37184 1.08278C3.65548 1.71988 3.53648 2.49269 3.01391 3.01532C2.67532 3.35391 2.23169 3.52308 1.78798 3.52308C1.54476 3.52318 1.30422 3.47222 1.08194 3.37349C0.700213 3.99491 0.419416 4.67291 0.25 5.38225C0.900707 5.63228 1.36277 6.26288 1.36277 7.00162C1.36277 7.74018 0.901094 8.37046 0.250774 8.6207C0.420557 9.32997 0.701685 10.0079 1.0837 10.6291C1.30549 10.5309 1.54538 10.4802 1.78795 10.4803C2.23169 10.4803 2.67525 10.6495 3.01388 10.9881C3.53563 11.5098 3.65509 12.2812 3.373 12.9178C3.9943 13.2996 4.67221 13.5805 5.38148 13.75C5.63207 13.1004 6.262 12.6392 7 12.6392C7.738 12.6392 8.36793 13.1003 8.61849 13.75C9.32779 13.5805 10.0057 13.2996 10.627 12.9177C10.345 12.2812 10.4644 11.5098 10.9862 10.9881C11.3247 10.6495 11.7683 10.4803 12.212 10.4803C12.4523 10.4803 12.6926 10.5299 12.9163 10.6291C13.2983 10.0079 13.5794 9.32997 13.7492 8.6207C13.0989 8.37043 12.6373 7.74011 12.6373 7.00162ZM7.03164 9.80898C5.47422 9.80898 4.21914 8.54688 4.21914 6.99648C4.21914 5.44606 5.47422 4.18398 7.03164 4.18398C8.58903 4.18398 9.84414 5.44606 9.84414 6.99648C9.84414 8.54688 8.58903 9.80898 7.03164 9.80898Z" fill="#FD6F6E"/>
</svg>
