<svg width="24" height="24" viewBox="0 0 24 24" fill="none" xmlns="http://www.w3.org/2000/svg">
<path fill-rule="evenodd" clip-rule="evenodd" d="M12 24C18.6276 24 24 18.6276 24 12C24 5.3724 18.6276 0 12 0C5.3724 0 0 5.3724 0 12C0 18.6276 5.3724 24 12 24ZM7.2 10.8C6.88174 10.8 6.57652 10.9264 6.35147 11.1515C6.12643 11.3765 6 11.6817 6 12C6 12.3183 6.12643 12.6235 6.35147 12.8485C6.57652 13.0736 6.88174 13.2 7.2 13.2H16.8C17.1183 13.2 17.4235 13.0736 17.6485 12.8485C17.8736 12.6235 18 12.3183 18 12C18 11.6817 17.8736 11.3765 17.6485 11.1515C17.4235 10.9264 17.1183 10.8 16.8 10.8H7.2Z" fill="#FD6F6E"/>
</svg>
